<?xml version="1.0" encoding="utf-8"?>
<!-- Generator: Adobe Illustrator 23.0.6, SVG Export Plug-In . SVG Version: 6.00 Build 0)  -->
<svg version="1.1" id="Layer_1" xmlns="http://www.w3.org/2000/svg" xmlns:xlink="http://www.w3.org/1999/xlink" x="0px" y="0px"
	 viewBox="0 0 800 800" style="enable-background:new 0 0 800 800;" xml:space="preserve">
<style type="text/css">
	.st0{fill:#838B9A;}
</style>
<title></title>
<path class="st0" d="M598.3,625v75h-400V100h400v75h50V75c0-13.8-11.2-25-25-25h-450c-13.8,0-25,11.2-25,25v650
	c0,13.8,11.2,25,25,25h450c13.8,0,25-11.2,25-25V625H598.3z"/>
<g>
	<path class="st0" d="M572.2,239.6l157.4,161.7L572.2,561.4c-8.5-8.3-17.1-16.6-25.6-25c43.8-45.1,87.6-90.2,131.5-135.3
		c-43.7-45.1-87.4-90.3-131.1-135.4C555.3,257,563.7,248.3,572.2,239.6z"/>
	<polygon class="st0" points="332.8,386.9 333.1,416.9 680.9,416.9 680.9,386.9 	"/>
</g>
</svg>
