<?xml version="1.0" encoding="utf-8"?>
<!-- Generator: Adobe Illustrator 23.0.6, SVG Export Plug-In . SVG Version: 6.00 Build 0)  -->
<svg version="1.1" id="Capa_1" xmlns="http://www.w3.org/2000/svg" xmlns:xlink="http://www.w3.org/1999/xlink" x="0px" y="0px"
	 viewBox="0 0 800 609.5" style="enable-background:new 0 0 800 609.5;" xml:space="preserve">
<style type="text/css">
	.st0{fill:#838B9A;}
</style>
<title>plan-of-a-house-svgrepo-com</title>
<path class="st0" d="M781,0H209.5c-5,0-9.9,2-13.5,5.6L5.6,196.1C2,199.6,0,204.5,0,209.5v381c0,10.5,8.5,19,19,19l0,0h762
	c10.5,0,19-8.5,19-19l0,0V19.1C800,8.6,791.6,0,781,0C781,0,781,0,781,0z M761.9,571.4H38.1V228.6h171.4c10.5,0,19.1-8.5,19.1-19
	c0,0,0,0,0,0V38.1h533.3V571.4z"/>
<path class="st0" d="M171.4,285.7c-10.5,0-19,8.5-19,19c0,0,0,0,0,0.1v142.9c0,10.5,8.5,19,19,19l0,0h476.2c10.5,0,19-8.5,19-19l0,0
	V161.9c0-10.5-8.5-19-19-19l0,0H457.1c-10.5,0-19,8.5-19,19l0,0v123.8H171.4z M533.3,323.8v104.8H323.8V323.8H533.3z M190.5,323.8
	h95.3v104.8h-95.2L190.5,323.8z M571.4,428.6V323.8h57.2v104.8H571.4z M628.6,181v104.8H476.2V181H628.6z"/>
</svg>
